<?xml version="1.0" encoding="UTF-8"?><svg id="Artwork" xmlns="http://www.w3.org/2000/svg" viewBox="0 450 1616.59 525"><defs><style>.cls-1{stroke-width:15.06px;}.cls-1,.cls-2,.cls-3,.cls-4{fill:#1d1d1b;}.cls-1,.cls-4{stroke:#1d1d1b;stroke-miterlimit:10;}.cls-2{font-size:355.13px;}.cls-2,.cls-3{font-family:Helvetica Neue, Arial, sans-serif;font-weight:600;}.cls-3{font-size:70.27px;}.cls-4{stroke-width:2.51px;}.cls-5{fill:#6ec1ed;}.cls-6{letter-spacing:.02em;}</style></defs><path class="cls-5" d="M68.16,582.96v195.77c.65,74.48,62.1,135.4,136.58,135.4s135.93-60.92,136.58-135.4v-129.69h-38.59v129.69c-2.1,52.27-45.67,94.12-97.98,94.12s-95.88-41.86-97.98-94.12v-195.77h-38.59Z"/><path class="cls-5" d="M126.44,544.33c-.11,76.31-.23,152.63-.34,228.94-.74,43.67,35.01,80,78.64,80s79.37-36.34,78.64-80v-228.94h-38.59v228.94c-.73,21.46-18.57,38.72-40.04,38.73-21.48,0-39.35-17.26-40.07-38.73v-228.94h-38.22Z"/><path class="cls-5" d="M186.51,510.91v262.44c.44,10.19,8.44,18.32,17.98,18.96,10.44,.7,20.08-7.76,20.61-18.96V510.91h-38.59Z"/><line class="cls-1" x1="438.23" y1="481.59" x2="438.23" y2="943.44"/><text class="cls-2" transform="translate(530.24 816)"><tspan x="0" y="0">AdaGo</tspan></text></svg>